<svg width="24" height="21" xmlns="http://www.w3.org/2000/svg"><path d="M7.123 17.953a1.2 1.2 0 0 1-1.202 1.201h-4.22A1.2 1.2 0 0 1 .5 17.953a1.2 1.2 0 0 1 1.201-1.201h4.22c.664.025 1.202.562 1.202 1.201zm16.031-3.427a1.203 1.203 0 0 0-1.687 0l-1.612 1.612V2.024a1.2 1.2 0 0 0-1.2-1.201 1.2 1.2 0 0 0-1.202 1.201v14.089L15.842 14.5a1.203 1.203 0 0 0-1.688 0 1.204 1.204 0 0 0 0 1.687l3.63 3.63c.051.051.129.078.179.129.077.05.128.102.205.128.153.05.306.102.461.102a1 1 0 0 0 .46-.102c.078-.026.129-.078.206-.128.05-.051.128-.078.178-.128l3.681-3.604a1.204 1.204 0 0 0 0-1.689zM10.703 8.8H1.7a1.2 1.2 0 0 0-1.2 1.201 1.2 1.2 0 0 0 1.201 1.201h9a1.2 1.2 0 0 0 1.201-1.2 1.198 1.198 0 0 0-1.2-1.202zm3.194-5.575a1.2 1.2 0 0 0 1.202-1.2A1.2 1.2 0 0 0 13.897.822H1.701A1.2 1.2 0 0 0 .5 2.024a1.2 1.2 0 0 0 1.201 1.201h12.196z" fill="#5F5F5F" fill-rule="evenodd"/></svg>