<svg width="18" height="17" xmlns="http://www.w3.org/2000/svg"><defs><filter x="-.1%" y="-.6%" width="100.3%" height="102.5%" filterUnits="objectBoundingBox" id="a"><feOffset dy="1" in="SourceAlpha" result="shadowOffsetOuter1"/><feColorMatrix values="0 0 0 0 0.890196078 0 0 0 0 0.91372549 0 0 0 0 0.949019608 0 0 0 1 0" in="shadowOffsetOuter1" result="shadowMatrixOuter1"/><feMerge><feMergeNode in="shadowMatrixOuter1"/><feMergeNode in="SourceGraphic"/></feMerge></filter></defs><path d="M344.026 32.18c2.456 0 4.224 2.101 4.447 4.605 0 0 .12.622-.144 1.74-.36 1.525-1.206 2.879-2.346 3.911l-6.034 5.384-5.932-5.384c-1.14-1.033-1.986-2.387-2.346-3.91-.264-1.12-.144-1.741-.144-1.741.223-2.504 1.991-4.605 4.447-4.605 1.823 0 3.289 1.137 3.975 2.763.686-1.626 2.254-2.763 4.077-2.763z" filter="url(#a)" transform="translate(-331 -32)" fill="#E3E9F2" fill-rule="evenodd"/></svg>