<svg width="32" height="22" xmlns="http://www.w3.org/2000/svg"><g fill="none" fill-rule="evenodd"><path d="M23.027 5.572c-1.59-2.605-4.574-4.062-7.64-3.422-2.545.53-4.513 2.38-5.402 4.727-.17.014-.34.033-.511.071-1.57.32-2.744 1.525-3.165 3.03a4.458 4.458 0 0 0-1.67.015c-2.53.516-4.097 3.101-3.52 5.748.573 2.62 3.038 4.34 5.521 3.866l.19-.043c2.048 1.4 5.955 1.903 10.246 1.095 4.981-.932 8.955-3.336 9.897-5.792 1.674-1.076 2.668-3.14 2.336-5.286-.435-2.833-3.003-4.712-5.719-4.157a5.395 5.395 0 0 0-.563.148z" stroke="#98D563" fill="#98D563" fill-rule="nonzero"/><path d="M31.146 8.843c-.53-3.527-3.662-5.945-7.087-5.43C22.068.849 18.832-.518 15.497.184c-2.763.583-4.94 2.457-6.112 4.88-1.618.391-2.896 1.495-3.615 2.91a6.04 6.04 0 0 0-1.045.12C1.404 8.77-.597 12.15.16 15.556c.719 3.24 3.7 5.438 6.817 5.032 2.545 1.439 6.604 1.773 10.748 1.004 4.796-.894 9.277-3.211 10.772-6.223 1.93-1.443 3.037-3.942 2.649-6.527zm-3.785 5.572c-.941 2.456-4.915 4.86-9.896 5.792-4.291.808-8.199.306-10.247-1.095-.062.015-.128.03-.19.043-2.483.474-4.947-1.247-5.52-3.866-.577-2.647.989-5.232 3.52-5.748a4.458 4.458 0 0 1 1.67-.015c.42-1.505 1.594-2.71 3.164-3.03.17-.038.34-.057.511-.071.89-2.347 2.857-4.196 5.403-4.727 3.065-.64 6.05.817 7.64 3.422.184-.057.369-.11.562-.148 2.716-.555 5.285 1.324 5.72 4.157.332 2.146-.662 4.21-2.337 5.286z" fill="#81C34A"/><path d="M20.604 5C19.718 5 19 5.725 19 6.62c0 .895.718 1.62 1.604 1.62.886 0 1.604-.725 1.604-1.62 0-.895-.718-1.62-1.604-1.62m2.24 3a.848.848 0 0 0-.844.853c0 .47.378.853.844.853a.849.849 0 0 0 .844-.853.849.849 0 0 0-.844-.853" fill="#FFF"/></g></svg>