<?xml version="1.0" encoding="UTF-8" standalone="no"?>
<svg width="24px" height="21px" viewBox="0 0 24 21" version="1.1" xmlns="http://www.w3.org/2000/svg" xmlns:xlink="http://www.w3.org/1999/xlink">
    <!-- Generator: Sketch 43.2 (39069) - http://www.bohemiancoding.com/sketch -->
    <title>ico-filter-map</title>
    <desc>Created with Sketch.</desc>
    <defs></defs>
    <g id="Page-1" stroke="none" stroke-width="1" fill="none" fill-rule="evenodd">
        <g id="1" transform="translate(-338.000000, -37.000000)" fill="#5F5F5F">
            <path d="M345.12286,54.9530187 C345.12286,55.6174866 344.585899,56.1544476 343.921431,56.1544476 L339.701088,56.1544476 C339.03662,56.1544476 338.5,55.6174866 338.5,54.9530187 C338.5,54.2885508 339.03662,53.7519307 339.701088,53.7519307 L343.920067,53.7519307 C344.584535,53.7771593 345.12286,54.3137794 345.12286,54.9530187 L345.12286,54.9530187 Z M361.154299,51.5263552 C360.693365,51.065762 359.926278,51.065762 359.467049,51.5263552 L357.855484,53.13792 L357.855484,39.0241984 C357.855484,38.3593896 357.318864,37.8227695 356.654396,37.8227695 C355.989928,37.8227695 355.452967,38.3593896 355.452967,39.0241984 L355.452967,53.1126914 L353.841743,51.5011265 C353.380809,51.0405333 352.613722,51.0405333 352.154492,51.5011265 C351.693558,51.9620607 351.693558,52.7291478 352.154492,53.1883773 L355.784689,56.8189156 L355.784689,56.8189156 C355.835147,56.8693728 355.912537,56.8959652 355.962995,56.9467634 C356.040385,56.9972207 356.090842,57.0493826 356.168233,57.0746113 C356.321309,57.1250686 356.474386,57.1772305 356.629167,57.1772305 C356.782244,57.1772305 356.93532,57.1516609 357.08976,57.0746113 C357.167151,57.0493826 357.217608,56.9972207 357.294999,56.9467634 C357.345456,56.8959652 357.422847,56.8693728 357.473304,56.8189156 L357.473304,56.8189156 L361.154299,53.2153106 C361.615234,52.7543765 361.615234,51.9872893 361.154299,51.5263552 L361.154299,51.5263552 Z M348.7026,45.8001349 L339.701088,45.8001349 C339.03662,45.8001349 338.5,46.336755 338.5,47.0012229 C338.5,47.6656908 339.03662,48.2023109 339.701088,48.2023109 L348.701236,48.2023109 C349.365704,48.2023109 349.902324,47.6656908 349.902324,47.0012229 C349.903688,46.336755 349.367068,45.8001349 348.7026,45.8001349 L348.7026,45.8001349 Z M351.897433,40.2252865 C352.561901,40.2252865 353.098521,39.6886664 353.098521,39.0241984 C353.098521,38.3593896 352.561901,37.8227695 351.897433,37.8227695 L339.701088,37.8227695 C339.03662,37.8227695 338.5,38.3593896 338.5,39.0241984 C338.5,39.6886664 339.03662,40.2252865 339.701088,40.2252865 L351.897433,40.2252865 Z" id="ico-filter-map"></path>
        </g>
    </g>
</svg>