<?xml version="1.0" encoding="UTF-8" standalone="no"?>
<svg width="18px" height="17px" viewBox="0 0 18 17" version="1.1" xmlns="http://www.w3.org/2000/svg" xmlns:xlink="http://www.w3.org/1999/xlink">
    <!-- Generator: Sketch 43.2 (39069) - http://www.bohemiancoding.com/sketch -->
    <title>Mask</title>
    <desc>Created with Sketch.</desc>
    <defs>
        <filter x="-0.1%" y="-0.6%" width="100.3%" height="102.5%" filterUnits="objectBoundingBox" id="filter-1">
            <feOffset dx="0" dy="1" in="SourceAlpha" result="shadowOffsetOuter1"></feOffset>
            <feColorMatrix values="0 0 0 0 0.890196078   0 0 0 0 0.91372549   0 0 0 0 0.949019608  0 0 0 1 0" type="matrix" in="shadowOffsetOuter1" result="shadowMatrixOuter1"></feColorMatrix>
            <feMerge>
                <feMergeNode in="shadowMatrixOuter1"></feMergeNode>
                <feMergeNode in="SourceGraphic"></feMergeNode>
            </feMerge>
        </filter>
    </defs>
    <g id="Page-1" stroke="none" stroke-width="1" fill="none" fill-rule="evenodd">
        <g id="4" transform="translate(-331.000000, -466.000000)" fill="#E3E9F2">
            <g id="Preview-articles" transform="translate(0.000000, 380.000000)">
                <g id="Group-2">
                    <g id="row" filter="url(#filter-1)" transform="translate(0.000000, 54.000000)">
                        <path d="M344.02594,32.1803407 C346.481759,32.1803407 348.250439,34.2812005 348.472799,36.7849603 C348.472799,36.7849603 348.592819,37.4068202 348.328639,38.5257601 C347.968919,40.04964 347.123339,41.4035199 345.983319,42.4364398 L339.949,47.8199993 L334.016681,42.4360998 C332.876321,41.4031799 332.031081,40.0493 331.671361,38.5254201 C331.407181,37.4064802 331.527201,36.7846203 331.527201,36.7846203 C331.749561,34.2808605 333.518241,32.1800007 335.97406,32.1800007 C337.79748,32.1800007 339.26288,33.3166206 339.949,34.9428404 C340.63546,33.3166206 342.20252,32.1803407 344.02594,32.1803407 Z" id="Mask"></path>
                    </g>
                </g>
            </g>
        </g>
    </g>
</svg>