<?xml version="1.0" encoding="UTF-8" standalone="no"?>
<svg width="32px" height="22px" viewBox="0 0 32 22" version="1.1" xmlns="http://www.w3.org/2000/svg" xmlns:xlink="http://www.w3.org/1999/xlink">
    <!-- Generator: Sketch 43.2 (39069) - http://www.bohemiancoding.com/sketch -->
    <title>Group 3</title>
    <desc>Created with Sketch.</desc>
    <defs></defs>
    <g id="Page-1" stroke="none" stroke-width="1" fill="none" fill-rule="evenodd">
        <g id="2" transform="translate(-18.000000, -38.000000)">
            <g id="Group-3" transform="translate(18.000000, 38.000000)">
                <path d="M23.0274838,5.57196616 C21.4378699,2.96735376 18.4526167,1.50989639 15.3871739,2.15011345 C12.8421202,2.68058631 10.8740951,4.53029174 9.98483305,6.87687314 C9.81449316,6.89085763 9.64423767,6.90995841 9.47389777,6.9483305 C7.90344495,7.26835376 6.73005798,8.47289639 6.30910403,9.97802042 C5.76507993,9.87765608 5.20231675,9.882346 4.63930034,9.99251655 C2.1082588,10.5085786 0.54244854,13.0941755 1.11964587,15.741253 C1.69211623,18.3603615 4.15664249,20.0804545 6.64032987,19.607284 C6.70169613,19.5932995 6.76804259,19.579315 6.82949326,19.5643925 C8.87787695,20.9648034 12.7853965,21.4666251 17.0761387,20.659191 C22.0572723,19.7268344 26.0312228,17.3232065 26.9726504,14.8666251 C28.6474343,13.7913538 29.6411118,11.7271057 29.3093795,9.58133825 C28.8741602,6.74760182 26.3055561,4.86915996 23.5899938,5.42359407 C23.3961034,5.46179562 23.2117514,5.51466383 23.0274838,5.57196616 Z" id="Fill-16" stroke="#98D563" fill="#98D563" fill-rule="nonzero"></path>
                <path d="M31.1456675,8.8428542 C30.6157399,5.31611777 27.4839505,2.89773792 24.05892,3.41388521 C22.0677664,0.847730169 18.8315616,-0.519169056 15.4965124,0.183381332 C12.7339335,0.766210789 10.5576683,2.63987746 9.38461894,5.06269141 C7.76672755,5.4542573 6.48934714,6.55835032 5.77025617,7.97291622 C5.42037566,7.98272242 5.07496889,8.02100924 4.72483514,8.0924666 C1.40379801,8.77097048 -0.597231525,12.1498464 0.159759655,15.5571178 C0.878850629,18.7969162 3.85912355,20.9954666 6.97681637,20.588893 C9.52178561,22.0277612 13.5807372,22.3623658 17.7246899,21.5927922 C22.5213027,20.6991488 27.0017147,18.3815596 28.4966204,15.3704589 C30.4269141,13.9274123 31.5337014,11.4278542 31.1456675,8.8428542 L31.1456675,8.8428542 Z M27.3610492,14.4146526 C26.4195372,16.8713193 22.4455867,19.274862 17.4645375,20.2073038 C13.1737953,21.0147379 9.26627576,20.5129162 7.21789207,19.1124201 C7.15635699,19.1274278 7.09009494,19.1414123 7.02872868,19.1553116 C4.5450413,19.6285674 2.08051504,17.9083891 1.50804468,15.2892806 C0.930762937,12.642203 2.4966576,10.0566914 5.02769914,9.54054412 C5.59071555,9.43045885 6.15347873,9.42568366 6.69750284,9.52613327 C7.11845678,8.02100924 8.29184376,6.8164666 9.86229658,6.49635808 C10.0326365,6.45807125 10.202892,6.43888521 10.3732319,6.42490071 C11.2624939,4.07831932 13.2304346,2.22869916 15.7755727,1.69822629 C18.8410156,1.05792397 21.8261843,2.5154666 23.4157982,5.12007901 C23.6001502,5.06269141 23.7845022,5.00990846 23.9783082,4.97162164 C26.6939549,4.41718753 29.262559,6.29562939 29.6977783,9.12936583 C30.0295106,11.2752185 29.0358331,13.3394666 27.3610492,14.4146526 L27.3610492,14.4146526 Z" id="Fill-18" fill="#81C34A"></path>
                <path d="M20.6037949,5 C19.7179936,5 19,5.72531783 19,6.62006977 C19,7.51490698 19.7179936,8.24022481 20.6037949,8.24022481 C21.4895117,8.24022481 22.2075897,7.51490698 22.2075897,6.62006977 C22.2075897,5.72531783 21.4895117,5 20.6037949,5" id="Fill-19" fill="#FFFFFF"></path>
                <path d="M22.8441026,8 C22.3779047,8 22,8.38184496 22,8.85279845 C22,9.32366667 22.3779047,9.70551163 22.8441026,9.70551163 C23.310216,9.70551163 23.6882051,9.32366667 23.6882051,8.85279845 C23.6882051,8.38184496 23.310216,8 22.8441026,8" id="Fill-20" fill="#FFFFFF"></path>
            </g>
        </g>
    </g>
</svg>